<svg width="86" height="86" viewBox="0 0 86 86" fill="none" xmlns="http://www.w3.org/2000/svg">
<path d="M42.8559 84.2496C48.9178 84.2708 53.4311 84.2865 57.0353 84.0784C60.6334 83.8707 63.2772 83.4422 65.604 82.5966C73.3963 79.7646 79.5515 73.6522 82.4378 65.8798C83.2996 63.559 83.7466 60.9183 83.9794 57.3217C84.2126 53.7191 84.2284 49.2058 84.2496 43.1438C84.2708 37.0819 84.2864 32.5686 84.0784 28.9645C83.8707 25.3663 83.4422 22.7225 82.5966 20.3958C79.7646 12.6034 73.6522 6.4482 65.8798 3.56191C63.559 2.70008 60.9183 2.25315 57.3217 2.02031C53.719 1.78711 49.2058 1.77128 43.1438 1.75012C37.0819 1.72897 32.5686 1.71329 28.9644 1.92134C25.3663 2.12906 22.7225 2.55755 20.3957 3.40316C12.6034 6.23512 6.44818 12.3475 3.56189 20.1199C2.70006 22.4407 2.25313 25.0814 2.02029 28.678C1.78708 32.2807 1.77126 36.7939 1.7501 42.8559C1.72894 48.9179 1.71326 53.4311 1.92132 57.0353C2.12904 60.6335 2.55753 63.2772 3.40314 65.604C6.2351 73.3963 12.3475 79.5515 20.1199 82.4378C22.4407 83.2997 25.0814 83.7466 28.678 83.9794C32.2807 84.2126 36.7939 84.2285 42.8559 84.2496Z" stroke="url(#paint0_linear_20736_2)" stroke-width="1.5"/>
<path d="M60.9971 43.8127C61.4113 43.8142 61.7483 43.4796 61.7498 43.0654C61.7512 42.6512 61.4166 42.3142 61.0024 42.3127L60.9998 43.0627L60.9971 43.8127ZM25.4715 42.4084C25.1776 42.7003 25.1759 43.1751 25.4678 43.4691L30.2241 48.2587C30.5159 48.5526 30.9908 48.5542 31.2847 48.2624C31.5786 47.9705 31.5803 47.4956 31.2884 47.2017L27.0606 42.9443L31.318 38.7165C31.612 38.4246 31.6136 37.9497 31.3217 37.6558C31.0299 37.3619 30.555 37.3603 30.2611 37.6521L25.4715 42.4084ZM60.9998 43.0627L61.0024 42.3127L26.0026 42.1906L26 42.9406L25.9974 43.6906L60.9971 43.8127L60.9998 43.0627Z" fill="url(#paint1_linear_20736_2)"/>
<defs>
<linearGradient id="paint0_linear_20736_2" x1="85.0448" y1="30.2047" x2="21.1844" y2="26.8594" gradientUnits="userSpaceOnUse">
<stop stop-color="#237249"/>
<stop offset="1" stop-color="#35C66B"/>
</linearGradient>
<linearGradient id="paint1_linear_20736_2" x1="26.0022" y1="42.2865" x2="32.8353" y2="30.6886" gradientUnits="userSpaceOnUse">
<stop stop-color="#237249"/>
<stop offset="1" stop-color="#35C66B"/>
</linearGradient>
</defs>
</svg>
