<svg width="86" height="86" viewBox="0 0 86 86" fill="none" xmlns="http://www.w3.org/2000/svg">
<path d="M1.75008 43.1317C1.76943 49.1936 1.78392 53.7069 2.01605 57.3096C2.24782 60.9063 2.69397 63.5471 3.55511 65.8682C6.43909 73.6414 12.5925 79.7557 20.384 82.5899C22.7105 83.4363 25.3541 83.8655 28.9522 84.0743C32.5564 84.2834 37.0696 84.2691 43.1316 84.2497C49.1936 84.2304 53.7068 84.2159 57.3095 83.9838C60.9062 83.752 63.5471 83.3059 65.8681 82.4447C73.6414 79.5607 79.7556 73.4073 82.5899 65.6158C83.4362 63.2893 83.8654 60.6457 84.0742 57.0476C84.2834 53.4435 84.269 48.9302 84.2497 42.8682C84.2303 36.8063 84.2158 32.293 83.9837 28.6903C83.7519 25.0936 83.3058 22.4528 82.4446 20.1317C79.5606 12.3585 73.4072 6.24423 65.6158 3.40995C63.2892 2.56365 60.6456 2.13438 57.0475 1.92559C53.4434 1.71646 48.9301 1.7308 42.8681 1.75016C36.8062 1.76952 32.2929 1.784 28.6902 2.01614C25.0935 2.24791 22.4527 2.69405 20.1316 3.55519C12.3584 6.43917 6.24415 12.5926 3.40987 20.3841C2.56357 22.7106 2.1343 25.3542 1.9255 28.9523C1.71638 32.5564 1.73072 37.0697 1.75008 43.1317Z" stroke="url(#paint0_linear_20736_2)" stroke-width="1.5"/>
<path d="M42.3074 61.0022C42.3087 61.4164 42.6456 61.7511 43.0598 61.7498C43.474 61.7484 43.8087 61.4116 43.8074 60.9974L43.0574 60.9998L42.3074 61.0022ZM43.4742 25.4679C43.1804 25.176 42.7055 25.1775 42.4136 25.4713L37.6559 30.2595C37.3639 30.5533 37.3654 31.0282 37.6593 31.3201C37.9531 31.6121 38.428 31.6106 38.7199 31.3168L42.949 27.0606L47.2052 31.2897C47.499 31.5816 47.9739 31.5801 48.2658 31.2863C48.5578 30.9924 48.5563 30.5176 48.2624 30.2256L43.4742 25.4679ZM43.0574 60.9998L43.8074 60.9974L43.6956 25.9975L42.9456 25.9999L42.1956 26.0023L42.3074 61.0022L43.0574 60.9998Z" fill="url(#paint1_linear_20736_2)"/>
<defs>
<linearGradient id="paint0_linear_20736_2" x1="56.0758" y1="84.9584" x2="58.9942" y2="21.0771" gradientUnits="userSpaceOnUse">
<stop stop-color="#237249"/>
<stop offset="1" stop-color="#35C66B"/>
</linearGradient>
<linearGradient id="paint1_linear_20736_2" x1="43.5997" y1="25.9978" x2="55.243" y2="32.7532" gradientUnits="userSpaceOnUse">
<stop stop-color="#237249"/>
<stop offset="1" stop-color="#35C66B"/>
</linearGradient>
</defs>
</svg>
